<svg width="112" height="89" viewBox="0 0 112 89" fill="none" xmlns="http://www.w3.org/2000/svg">
<path d="M71.2822 17.7781C69.1722 15.6694 65.7505 15.6694 63.6418 17.7781L29.2557 52.136C25.0334 56.3512 18.1927 56.3512 13.9735 52.136C9.74987 47.9189 9.74987 41.083 13.9735 36.8638L47.6976 3.16911C43.4775 -1.04879 36.6341 -1.04879 32.414 3.16911L6.32951 29.231C-2.10984 37.6651 -2.10984 51.3369 6.32951 59.7718C14.771 68.2063 28.4538 68.2063 36.8953 59.7718L71.2822 25.4135C73.391 23.3052 73.391 19.8864 71.2822 17.7781ZM82.7443 6.32653C74.3027 -2.10884 60.62 -2.10884 52.1785 6.32653L17.7933 40.6826C15.6845 42.7896 15.6845 46.2106 17.7933 48.318C19.9033 50.4263 23.3233 50.4263 25.4337 48.318L59.822 13.9619C64.0421 9.74404 70.8828 9.74404 75.1021 13.9619C77.2143 16.0689 80.6347 16.0689 82.7447 13.9619C84.8548 11.8515 84.8543 8.43482 82.7443 6.32653ZM94.2072 40.6826C92.0971 38.5765 88.6746 38.5765 86.5645 40.6826L52.1785 75.04C47.9583 79.2566 41.1154 79.2566 36.8953 75.04C34.7866 72.933 31.3658 72.933 29.2557 75.04C27.1426 77.1492 27.1426 80.568 29.2557 82.6741C37.6938 91.1086 51.38 91.1086 59.8215 82.6741L94.2072 48.318C96.3159 46.211 96.3159 42.79 94.2072 40.6826ZM105.67 29.2315C97.229 20.7983 83.544 20.7983 75.1047 29.2315L40.7164 63.5897C38.6064 65.6959 38.6064 69.1169 40.7164 71.2238C42.8278 73.3335 46.2495 73.3335 48.3582 71.2238L82.7443 36.8664C86.9631 32.649 93.8073 32.649 98.0265 36.8664C102.247 41.0835 102.247 47.9194 98.0265 52.1364L64.3024 85.8333C68.5225 90.0486 75.3624 90.0486 79.586 85.8333L105.67 59.7714C114.11 51.336 114.11 37.6646 105.67 29.2315Z" fill="#1A1918"/>
</svg>
