<svg width="150" height="150" viewBox="0 0 150 150" fill="none" xmlns="http://www.w3.org/2000/svg">
<rect width="150" height="150" rx="75" fill="white"/>
<path fill-rule="evenodd" clip-rule="evenodd" d="M79 122.083C79 123.694 80.2775 125 81.8533 125H121.23C122.806 125 124.093 123.69 123.995 122.083C122.581 98.9545 104.48 80.4501 81.854 79.0054C80.2811 78.9049 79 80.2205 79 81.8314V122.083Z" fill="#254078"/>
<path fill-rule="evenodd" clip-rule="evenodd" d="M70 81.9168C70 80.3059 68.7225 79 67.1466 79H27.7698C26.1939 79 24.907 80.3095 25.0053 81.9174C26.4186 105.046 44.5205 123.55 67.146 124.995C68.7189 125.095 70 123.78 70 122.169V81.9168Z" fill="#254078"/>
<path fill-rule="evenodd" clip-rule="evenodd" d="M70 68.0832C70 69.6941 68.7225 71 67.1466 71H27.7698C26.1939 71 24.907 69.6905 25.0053 68.0826C26.4186 44.9543 44.5205 26.4501 67.146 25.0054C68.7189 24.9049 70 26.2204 70 27.8313V68.0832Z" fill="#FF62FD"/>
<path fill-rule="evenodd" clip-rule="evenodd" d="M79 27.9168C79 26.3059 80.2775 25 81.8533 25H121.23C122.806 25 124.093 26.3096 123.995 27.9173C122.581 51.0456 104.48 69.5499 81.854 70.9946C80.2811 71.0951 79 69.7795 79 68.1686V27.9168Z" fill="#0078FF"/>
</svg>
